<mxfile host="app.diagrams.net" modified="2020-04-18T02:57:32.132Z" agent="5.0 (Macintosh; Intel Mac OS X 10_15_4) AppleWebKit/537.36 (KHTML, like Gecko) Chrome/80.0.3987.163 Safari/537.36" etag="5oUO5AibnIPbh2v-KR3z" version="12.9.14" type="github">
  <diagram id="PxuPuNHZjP1R4h75ukKv" name="Page-1">
    <mxGraphModel dx="1137" dy="608" grid="1" gridSize="10" guides="1" tooltips="1" connect="1" arrows="1" fold="1" page="1" pageScale="1" pageWidth="827" pageHeight="1169" math="0" shadow="0">
      <root>
        <mxCell id="0" />
        <mxCell id="1" parent="0" />
        <mxCell id="_lRkGX2vNJFFtiPt8SeG-15" value="" style="edgeStyle=orthogonalEdgeStyle;rounded=0;orthogonalLoop=1;jettySize=auto;html=1;" edge="1" parent="1" source="_lRkGX2vNJFFtiPt8SeG-1" target="_lRkGX2vNJFFtiPt8SeG-9">
          <mxGeometry relative="1" as="geometry" />
        </mxCell>
        <mxCell id="_lRkGX2vNJFFtiPt8SeG-1" value="Node" style="rounded=1;whiteSpace=wrap;html=1;gradientColor=#7ea6e0;fillColor=#dae8fc;strokeColor=#6c8ebf;" vertex="1" parent="1">
          <mxGeometry x="80" y="160" width="90" height="50" as="geometry" />
        </mxCell>
        <mxCell id="_lRkGX2vNJFFtiPt8SeG-2" value="Node" style="rounded=1;whiteSpace=wrap;html=1;gradientColor=#7ea6e0;fillColor=#dae8fc;strokeColor=#6c8ebf;" vertex="1" parent="1">
          <mxGeometry x="170" y="160" width="90" height="50" as="geometry" />
        </mxCell>
        <mxCell id="_lRkGX2vNJFFtiPt8SeG-3" value="null" style="rounded=1;whiteSpace=wrap;html=1;gradientColor=#b3b3b3;fillColor=#f5f5f5;strokeColor=#666666;" vertex="1" parent="1">
          <mxGeometry x="260" y="160" width="90" height="50" as="geometry" />
        </mxCell>
        <mxCell id="_lRkGX2vNJFFtiPt8SeG-4" value="null" style="rounded=1;whiteSpace=wrap;html=1;gradientColor=#b3b3b3;fillColor=#f5f5f5;strokeColor=#666666;" vertex="1" parent="1">
          <mxGeometry x="350" y="160" width="90" height="50" as="geometry" />
        </mxCell>
        <mxCell id="_lRkGX2vNJFFtiPt8SeG-34" style="edgeStyle=none;rounded=0;orthogonalLoop=1;jettySize=auto;html=1;exitX=0.5;exitY=1;exitDx=0;exitDy=0;entryX=0.5;entryY=0;entryDx=0;entryDy=0;" edge="1" parent="1" source="_lRkGX2vNJFFtiPt8SeG-5" target="_lRkGX2vNJFFtiPt8SeG-28">
          <mxGeometry relative="1" as="geometry" />
        </mxCell>
        <mxCell id="_lRkGX2vNJFFtiPt8SeG-5" value="TreeNode" style="rounded=1;whiteSpace=wrap;html=1;gradientColor=#97d077;fillColor=#d5e8d4;strokeColor=#82b366;" vertex="1" parent="1">
          <mxGeometry x="440" y="160" width="90" height="50" as="geometry" />
        </mxCell>
        <mxCell id="_lRkGX2vNJFFtiPt8SeG-6" value="null" style="rounded=1;whiteSpace=wrap;html=1;gradientColor=#b3b3b3;fillColor=#f5f5f5;strokeColor=#666666;" vertex="1" parent="1">
          <mxGeometry x="530" y="160" width="90" height="50" as="geometry" />
        </mxCell>
        <mxCell id="_lRkGX2vNJFFtiPt8SeG-18" value="" style="edgeStyle=orthogonalEdgeStyle;rounded=0;orthogonalLoop=1;jettySize=auto;html=1;" edge="1" parent="1" source="_lRkGX2vNJFFtiPt8SeG-7" target="_lRkGX2vNJFFtiPt8SeG-17">
          <mxGeometry relative="1" as="geometry" />
        </mxCell>
        <mxCell id="_lRkGX2vNJFFtiPt8SeG-7" value="Node" style="rounded=1;whiteSpace=wrap;html=1;gradientColor=#7ea6e0;fillColor=#dae8fc;strokeColor=#6c8ebf;" vertex="1" parent="1">
          <mxGeometry x="620" y="160" width="90" height="50" as="geometry" />
        </mxCell>
        <mxCell id="_lRkGX2vNJFFtiPt8SeG-8" value="Node" style="rounded=1;whiteSpace=wrap;html=1;gradientColor=#7ea6e0;fillColor=#dae8fc;strokeColor=#6c8ebf;" vertex="1" parent="1">
          <mxGeometry x="710" y="160" width="90" height="50" as="geometry" />
        </mxCell>
        <mxCell id="_lRkGX2vNJFFtiPt8SeG-16" value="" style="edgeStyle=orthogonalEdgeStyle;rounded=0;orthogonalLoop=1;jettySize=auto;html=1;" edge="1" parent="1" source="_lRkGX2vNJFFtiPt8SeG-9" target="_lRkGX2vNJFFtiPt8SeG-10">
          <mxGeometry relative="1" as="geometry" />
        </mxCell>
        <mxCell id="_lRkGX2vNJFFtiPt8SeG-9" value="Node" style="rounded=1;whiteSpace=wrap;html=1;gradientColor=#7ea6e0;fillColor=#dae8fc;strokeColor=#6c8ebf;" vertex="1" parent="1">
          <mxGeometry x="80" y="240" width="90" height="50" as="geometry" />
        </mxCell>
        <mxCell id="_lRkGX2vNJFFtiPt8SeG-10" value="Node" style="rounded=1;whiteSpace=wrap;html=1;gradientColor=#7ea6e0;fillColor=#dae8fc;strokeColor=#6c8ebf;" vertex="1" parent="1">
          <mxGeometry x="80" y="320" width="90" height="50" as="geometry" />
        </mxCell>
        <mxCell id="_lRkGX2vNJFFtiPt8SeG-20" value="" style="edgeStyle=orthogonalEdgeStyle;rounded=0;orthogonalLoop=1;jettySize=auto;html=1;" edge="1" parent="1" source="_lRkGX2vNJFFtiPt8SeG-17" target="_lRkGX2vNJFFtiPt8SeG-19">
          <mxGeometry relative="1" as="geometry" />
        </mxCell>
        <mxCell id="_lRkGX2vNJFFtiPt8SeG-17" value="Node" style="rounded=1;whiteSpace=wrap;html=1;gradientColor=#7ea6e0;fillColor=#dae8fc;strokeColor=#6c8ebf;" vertex="1" parent="1">
          <mxGeometry x="620" y="240" width="90" height="50" as="geometry" />
        </mxCell>
        <mxCell id="_lRkGX2vNJFFtiPt8SeG-22" value="" style="edgeStyle=orthogonalEdgeStyle;rounded=0;orthogonalLoop=1;jettySize=auto;html=1;" edge="1" parent="1" source="_lRkGX2vNJFFtiPt8SeG-19" target="_lRkGX2vNJFFtiPt8SeG-21">
          <mxGeometry relative="1" as="geometry" />
        </mxCell>
        <mxCell id="_lRkGX2vNJFFtiPt8SeG-19" value="Node" style="rounded=1;whiteSpace=wrap;html=1;gradientColor=#7ea6e0;fillColor=#dae8fc;strokeColor=#6c8ebf;" vertex="1" parent="1">
          <mxGeometry x="620" y="320" width="90" height="50" as="geometry" />
        </mxCell>
        <mxCell id="_lRkGX2vNJFFtiPt8SeG-21" value="Node" style="rounded=1;whiteSpace=wrap;html=1;gradientColor=#7ea6e0;fillColor=#dae8fc;strokeColor=#6c8ebf;" vertex="1" parent="1">
          <mxGeometry x="620" y="400" width="90" height="50" as="geometry" />
        </mxCell>
        <mxCell id="_lRkGX2vNJFFtiPt8SeG-33" style="edgeStyle=none;rounded=0;orthogonalLoop=1;jettySize=auto;html=1;exitX=0.5;exitY=1;exitDx=0;exitDy=0;entryX=0.5;entryY=0;entryDx=0;entryDy=0;" edge="1" parent="1" source="_lRkGX2vNJFFtiPt8SeG-27" target="_lRkGX2vNJFFtiPt8SeG-29">
          <mxGeometry relative="1" as="geometry" />
        </mxCell>
        <mxCell id="_lRkGX2vNJFFtiPt8SeG-27" value="TreeNode" style="rounded=1;whiteSpace=wrap;html=1;gradientColor=#97d077;fillColor=#d5e8d4;strokeColor=#82b366;" vertex="1" parent="1">
          <mxGeometry x="390" y="240" width="90" height="50" as="geometry" />
        </mxCell>
        <mxCell id="_lRkGX2vNJFFtiPt8SeG-28" value="TreeNode" style="rounded=1;whiteSpace=wrap;html=1;gradientColor=#97d077;fillColor=#d5e8d4;strokeColor=#82b366;" vertex="1" parent="1">
          <mxGeometry x="510" y="240" width="90" height="50" as="geometry" />
        </mxCell>
        <mxCell id="_lRkGX2vNJFFtiPt8SeG-29" value="TreeNode" style="rounded=1;whiteSpace=wrap;html=1;gradientColor=#97d077;fillColor=#d5e8d4;strokeColor=#82b366;" vertex="1" parent="1">
          <mxGeometry x="350" y="320" width="90" height="50" as="geometry" />
        </mxCell>
        <mxCell id="_lRkGX2vNJFFtiPt8SeG-31" value="" style="endArrow=classic;html=1;exitX=0.5;exitY=1;exitDx=0;exitDy=0;" edge="1" parent="1" source="_lRkGX2vNJFFtiPt8SeG-5">
          <mxGeometry width="50" height="50" relative="1" as="geometry">
            <mxPoint x="390" y="340" as="sourcePoint" />
            <mxPoint x="435" y="240" as="targetPoint" />
          </mxGeometry>
        </mxCell>
      </root>
    </mxGraphModel>
  </diagram>
</mxfile>
